<?xml version="1.0" encoding="UTF-8" standalone="no"?>
<svg
   xmlns:dc="http://purl.org/dc/elements/1.1/"
   xmlns:cc="http://creativecommons.org/ns#"
   xmlns:rdf="http://www.w3.org/1999/02/22-rdf-syntax-ns#"
   xmlns:svg="http://www.w3.org/2000/svg"
   xmlns="http://www.w3.org/2000/svg"
   id="svg87"
   xml:space="preserve"
   viewBox="0 0 550 445"
   height="445"
   width="550"
   version="1.1"><metadata
     id="metadata91"><rdf:RDF><cc:Work
         rdf:about=""><dc:format>image/svg+xml</dc:format><dc:type
           rdf:resource="http://purl.org/dc/dcmitype/StillImage" /></cc:Work></rdf:RDF></metadata><defs
     id="defs4"><style
       id="style2"
       type="text/css">@import url(&quot;https://fonts.googleapis.com/css2?family=Bigshot+One:wght@400&quot;);</style></defs><defs
     id="defs6" /><g
     id="icon"
     transform="matrix(0.35 0 0 0.35 91.65 222.5)"><g
       id="g76"
       style=""><g
         id="other_icon"
         transform="matrix(1 0 0 1 -0.01 0.01)"><linearGradient
           y2="239.21"
           x2="48.62"
           y1="7.92"
           x1="182.15"
           gradientTransform="matrix(1 0 0 1 0 0)"
           gradientUnits="userSpaceOnUse"
           id="SVGID_b3957662-9343-4866-9538-9294d213c300_166"><stop
             id="stop8"
             style="stop-color:rgb(252,193,22);stop-opacity: 1"
             offset="0%" /><stop
             id="stop10"
             style="stop-color:rgb(248,189,22);stop-opacity: 1"
             offset="24%" /><stop
             id="stop12"
             style="stop-color:rgb(235,177,24);stop-opacity: 1"
             offset="50%" /><stop
             id="stop14"
             style="stop-color:rgb(214,158,26);stop-opacity: 1"
             offset="76%" /><stop
             id="stop16"
             style="stop-color:rgb(187,133,29);stop-opacity: 1"
             offset="100%" /></linearGradient><path
           id="path19"
           stroke-linecap="round"
           d="M 203.73 181 a 148.21 148.21 0 0 1 -35.26 33 a 93.93 93.93 0 0 1 -11.32 6.47 a 75.34 75.34 0 0 1 -15.74 5.43 l -2.3 0.53 a 80.09 80.09 0 0 1 -34.66 0.34 l -4.46 -0.94 a 42.63 42.63 0 0 1 -29 -35.6 a 105.67 105.67 0 0 1 -0.59 -11.43 q 0 -7.39 0.39 -17.8 q 0.33 -8.79 1.14 -17.56 h 0 l 1.58 -14.5 a 324.51 324.51 0 0 0 47 -4 a 327.51 327.51 0 0 1 -46.37 3.84 l -0.36 0 l 0 -0.45 q 7.48 -56.06 30.21 -84.71 t 46.71 -28.65 q 24 0 36.13 13.39 t 12.15 34 c 0 18.5 -8.61 33.21 -24.87 44.05 l 1.12 -0.09 l 5.56 -0.47 L 184.5 117 l 0.25 0.79 q 29.5 -19.89 29.52 -54.9 Q 214.27 0 135.17 0 Q 73.51 0 36.75 42 T 0 158.21 q 0 41.73 25.85 65.71 t 76.3 24 q 26.78 0 48.59 -9 t 33 -19.62 q 11.2 -10.59 20.55 -27.1 t 11.22 -26.47 Z"
           transform=" translate(-107.75, -123.96)"
           style="stroke: none; stroke-width: 1; stroke-dasharray: none; stroke-linecap: butt; stroke-dashoffset: 0; stroke-linejoin: miter; stroke-miterlimit: 4; fill: url(#SVGID_b3957662-9343-4866-9538-9294d213c300_166); fill-rule: nonzero; opacity: 1;" /></g><g
         id="g35"
         transform="matrix(1 0 0 1 20.6 0.65)"><linearGradient
           y2="245.11"
           x2="58.83"
           y1="13.82"
           x1="192.37"
           gradientTransform="matrix(1 0 0 1 0 0)"
           gradientUnits="userSpaceOnUse"
           id="SVGID_bcff4114-6a1e-4d28-ae52-d1b74b1b3c41_167"><stop
             id="stop22"
             style="stop-color:rgb(252,193,22);stop-opacity: 1"
             offset="0%" /><stop
             id="stop24"
             style="stop-color:rgb(248,189,22);stop-opacity: 1"
             offset="24%" /><stop
             id="stop26"
             style="stop-color:rgb(235,177,24);stop-opacity: 1"
             offset="50%" /><stop
             id="stop28"
             style="stop-color:rgb(214,158,26);stop-opacity: 1"
             offset="76%" /><stop
             id="stop30"
             style="stop-color:rgb(187,133,29);stop-opacity: 1"
             offset="100%" /></linearGradient><path
           id="path33"
           stroke-linecap="round"
           d="M 180.85 105.77 l -5.56 0.47 l -1.12 0.09 c -13.08 8.73 -31.13 14.94 -53.64 18.6 a 324.51 324.51 0 0 1 -47 4 l -1.58 14.5 c 42.89 -0.93 81.62 -8.08 105.28 -21 q 4 -2.17 7.54 -4.58 l -0.25 -0.79 Z"
           transform=" translate(-128.36, -124.6)"
           style="stroke: none; stroke-width: 1; stroke-dasharray: none; stroke-linecap: butt; stroke-dashoffset: 0; stroke-linejoin: miter; stroke-miterlimit: 4; fill: url(#SVGID_bcff4114-6a1e-4d28-ae52-d1b74b1b3c41_167); fill-rule: nonzero; opacity: 1;" /></g><g
         id="g50"
         transform="matrix(1 0 0 1 20.6 0.65)"><linearGradient
           y2="163.55"
           x2="105.93"
           y1="87.77"
           x1="149.67"
           gradientTransform="matrix(1 0 0 1 0 0)"
           gradientUnits="userSpaceOnUse"
           id="SVGID_b92e34b6-f0d4-44a8-8306-da3b3b16a8a3_168"><stop
             id="stop37"
             style="stop-color:rgb(252,193,22);stop-opacity: 0"
             offset="44%" /><stop
             id="stop39"
             style="stop-color:rgb(241,182,23);stop-opacity: 0.1"
             offset="52%" /><stop
             id="stop41"
             style="stop-color:rgb(210,153,27);stop-opacity: 0.37"
             offset="68%" /><stop
             id="stop43"
             style="stop-color:rgb(162,107,33);stop-opacity: 0.79"
             offset="90%" /><stop
             id="stop45"
             style="stop-color:rgb(138,84,36);stop-opacity: 1"
             offset="100%" /></linearGradient><path
           id="path48"
           stroke-linecap="round"
           d="M 180.85 105.77 l -5.56 0.47 l -1.12 0.09 c -13.08 8.73 -31.13 14.94 -53.64 18.6 a 324.51 324.51 0 0 1 -47 4 l -1.58 14.5 c 42.89 -0.93 81.62 -8.08 105.28 -21 q 4 -2.17 7.54 -4.58 l -0.25 -0.79 Z"
           transform=" translate(-128.36, -124.6)"
           style="stroke: none; stroke-width: 1; stroke-dasharray: none; stroke-linecap: butt; stroke-dashoffset: 0; stroke-linejoin: miter; stroke-miterlimit: 4; fill: url(#SVGID_b92e34b6-f0d4-44a8-8306-da3b3b16a8a3_168); fill-rule: nonzero; opacity: 1;" /></g><g
         id="g59"
         transform="matrix(1 0 0 1 39.59 -8.32)"><linearGradient
           y2="18.60000000000001"
           x2="0"
           y1="0"
           x1="0"
           gradientTransform="matrix(1 0 0 1 120.53 106.33)"
           gradientUnits="userSpaceOnUse"
           id="SVGID_170"><stop
             id="stop52"
             style="stop-color:rgb(235,209,151);stop-opacity: 1"
             offset="0%" /><stop
             id="stop54"
             style="stop-color:rgb(162,121,13);stop-opacity: 1"
             offset="100%" /></linearGradient><path
           id="path57"
           stroke-linecap="round"
           d="M 173.26 106.41 a 81.69 81.69 0 0 1 -7.95 4.71 c -11.9 6.22 -26.88 10.83 -44.78 13.81 c 22.51 -3.66 40.56 -9.87 53.64 -18.6 Z"
           transform=" translate(-147.35, -115.63)"
           style="stroke: none; stroke-width: 1; stroke-dasharray: none; stroke-linecap: butt; stroke-dashoffset: 0; stroke-linejoin: miter; stroke-miterlimit: 4; fill: url(#SVGID_170); fill-rule: nonzero; opacity: 1;" /></g><g
         id="g74"
         transform="matrix(1 0 0 1 39.59 -8.32)"><linearGradient
           y2="169.51"
           x2="116.25"
           y1="93.73"
           x1="160"
           gradientTransform="matrix(1 0 0 1 0 0)"
           gradientUnits="userSpaceOnUse"
           id="SVGID_b367adc0-8ce0-42d7-8d4b-cb1ae8b6e59b_169"><stop
             id="stop61"
             style="stop-color:rgb(252,193,22);stop-opacity: 0"
             offset="44%" /><stop
             id="stop63"
             style="stop-color:rgb(241,182,23);stop-opacity: 0.1"
             offset="52%" /><stop
             id="stop65"
             style="stop-color:rgb(210,153,27);stop-opacity: 0.37"
             offset="68%" /><stop
             id="stop67"
             style="stop-color:rgb(162,107,33);stop-opacity: 0.79"
             offset="90%" /><stop
             id="stop69"
             style="stop-color:rgb(138,84,36);stop-opacity: 1"
             offset="100%" /></linearGradient><path
           id="path72"
           stroke-linecap="round"
           d="M 173.26 106.41 a 81.69 81.69 0 0 1 -7.95 4.71 c -11.9 6.22 -26.88 10.83 -44.78 13.81 c 22.51 -3.66 40.56 -9.87 53.64 -18.6 Z"
           transform=" translate(-147.35, -115.63)"
           style="stroke: none; stroke-width: 1; stroke-dasharray: none; stroke-linecap: butt; stroke-dashoffset: 0; stroke-linejoin: miter; stroke-miterlimit: 4; fill: url(#SVGID_b367adc0-8ce0-42d7-8d4b-cb1ae8b6e59b_169); fill-rule: nonzero; opacity: 1;" /></g></g></g><g
     id="logo-name"
     style=""
     transform="matrix(1.44 0 0 1.44 326.47 223.22)"><linearGradient
       y2="33.89999999999999"
       x2="0"
       y1="0"
       x1="0"
       gradientTransform="matrix(1 0 0 1 -118.76 -16.95)"
       gradientUnits="userSpaceOnUse"
       id="SVGID_6"><stop
         id="stop79"
         style="stop-color:rgb(255,255,255);stop-opacity: 1"
         offset="0%" /></linearGradient><text
       id="text84"
       style="stroke: none; stroke-width: 1; stroke-dasharray: none; stroke-linecap: butt; stroke-dashoffset: 0; stroke-linejoin: miter; stroke-miterlimit: 4; fill: #ffffff; fill-rule: nonzero; opacity: 1; white-space: pre;"
       font-weight="normal"
       font-style="normal"
       font-size="30"
       font-family="Bigshot One"
       xml:space="preserve"><tspan
         id="tspan82"
         y="9.42"
         x="-118.76">E-Shop &amp; Services</tspan></text>
</g></svg>